<svg width="400" height="400" viewBox="0 0 400 400" fill="none" xmlns="http://www.w3.org/2000/svg">
<circle cx="200" cy="200" r="197.5" fill="black" stroke="white" stroke-width="5"/>
<line x1="68" y1="252" x2="332" y2="252" stroke="white" stroke-width="6"/>
<path d="M128.688 176.92H137.967V224.024H128.688V176.92Z" fill="white"/>
<path d="M107.808 200.728L107.232 201.547L91.872 223.384H91.744L76.96 202.941V224.024H68V175H68.064L91.9584 208.885L116.384 175H116.512V188.024L107.806 200.711L107.808 200.728Z" fill="white"/>
<path d="M157.997 194.456C157.791 194.965 157.614 195.488 157.467 196.024L147.595 196.024C147.86 194.265 148.277 192.59 148.845 191C149.954 188.013 151.512 185.432 153.517 183.256C155.565 181.08 157.997 179.395 160.813 178.2C163.629 177.005 166.744 176.408 170.157 176.408C173.314 176.408 176.109 176.835 178.541 177.688C180.973 178.541 182.957 179.459 184.493 180.44L180.845 189.208C179.778 188.397 178.349 187.565 176.557 186.712C174.808 185.816 172.781 185.368 170.477 185.368C168.685 185.368 166.957 185.752 165.293 186.52C163.672 187.245 162.221 188.291 160.941 189.656C159.704 191.021 158.722 192.621 157.997 194.456Z" fill="white"/>
<path d="M177.517 214.36C179.309 213.549 180.674 212.696 181.613 211.8L185.453 220.12C184.941 220.547 183.981 221.123 182.573 221.848C181.208 222.573 179.522 223.213 177.517 223.768C175.512 224.323 173.293 224.579 170.861 224.536C167.149 224.451 163.821 223.789 160.877 222.552C157.976 221.272 155.501 219.544 153.453 217.368C151.448 215.192 149.912 212.696 148.845 209.88C148.155 208.058 147.688 206.155 147.444 204.173L157.24 204.129C157.395 204.969 157.605 205.777 157.869 206.552C158.552 208.429 159.512 210.051 160.749 211.416C161.986 212.739 163.458 213.763 165.165 214.488C166.914 215.213 168.877 215.576 171.053 215.576C173.57 215.576 175.725 215.171 177.517 214.36Z" fill="white"/>
<path d="M205.63 189.784C204.307 191.149 203.283 192.749 202.558 194.584C201.833 196.419 201.47 198.403 201.47 200.536C201.47 202.627 201.833 204.589 202.558 206.424C203.326 208.216 204.371 209.816 205.694 211.224C207.059 212.589 208.617 213.656 210.366 214.424C212.158 215.192 214.099 215.576 216.19 215.576C218.195 215.576 220.051 215.192 221.758 214.424C223.507 213.656 225.022 212.589 226.302 211.224C227.582 209.816 228.585 208.216 229.31 206.424C230.035 204.589 230.398 202.627 230.398 200.536C230.398 198.403 230.014 196.419 229.246 194.584C228.521 192.749 227.497 191.149 226.174 189.784C224.894 188.376 223.379 187.288 221.63 186.52C221.43 186.432 221.228 186.349 221.024 186.272L224.427 178.024C224.67 178.121 224.91 178.222 225.15 178.328C228.051 179.608 230.611 181.379 232.83 183.64C235.091 185.859 236.841 188.419 238.078 191.32C239.358 194.221 239.998 197.293 239.998 200.536C239.998 203.864 239.358 206.979 238.078 209.88C236.841 212.781 235.091 215.341 232.83 217.56C230.611 219.736 228.051 221.443 225.15 222.68C222.249 223.917 219.155 224.536 215.87 224.536C212.542 224.536 209.427 223.917 206.526 222.68C203.625 221.443 201.065 219.736 198.846 217.56C196.67 215.341 194.963 212.781 193.726 209.88C192.489 206.979 191.87 203.864 191.87 200.536C191.87 197.293 192.489 194.221 193.726 191.32C194.963 188.419 196.67 185.859 198.846 183.64C201.065 181.379 203.625 179.608 206.526 178.328C206.766 178.222 207.007 178.121 207.249 178.024L210.56 186.384C210.452 186.428 210.345 186.473 210.238 186.52C208.489 187.288 206.953 188.376 205.63 189.784Z" fill="white"/>
<path d="M249.25 215.025L258.53 215.064H264.034C266.381 215.064 268.514 214.765 270.434 214.168C272.354 213.528 273.997 212.611 275.362 211.416C276.77 210.221 277.837 208.728 278.562 206.936C279.33 205.101 279.714 203.011 279.714 200.664C279.714 197.592 279.202 195.096 278.178 193.176C277.197 191.213 275.959 189.699 274.466 188.632C273.015 187.565 271.522 186.84 269.986 186.456C268.45 186.029 267.149 185.816 266.082 185.816H258.53H249.25V176.92H263.33C268.066 176.92 272.098 177.624 275.426 179.032C278.754 180.44 281.421 182.317 283.426 184.664C285.474 187.011 286.967 189.635 287.906 192.536C288.845 195.437 289.314 198.36 289.314 201.304C289.314 204.803 288.674 207.96 287.394 210.776C286.157 213.549 284.45 215.939 282.274 217.944C280.098 219.907 277.581 221.421 274.722 222.488C271.863 223.512 268.834 224.024 265.634 224.024H249.25V215.025Z" fill="white"/>
<path d="M298.625 185.88V176.92H330.753V185.88H307.905H298.625Z" fill="white"/>
<path d="M298.625 204.888V195.928H307.905H328.129V204.888H307.905H298.625Z" fill="white"/>
<path d="M298.625 215.025L307.905 215.064H331.649V224.024H298.625V215.025Z" fill="white"/>
<circle cx="134" cy="237" r="5" fill="#E91D1D"/>
</svg>
