<svg width="49" height="49" viewBox="0 0 49 49" fill="none" xmlns="http://www.w3.org/2000/svg">
<mask id="path-1-outside-1_138_740" maskUnits="userSpaceOnUse" x="15.5714" y="14.5" width="19" height="19" fill="black">
<rect fill="white" x="15.5714" y="14.5" width="19" height="19"/>
<path d="M25.5714 15.5C25.8476 15.5 26.0714 15.7239 26.0714 16V23H33.0714C33.3476 23 33.5714 23.2239 33.5714 23.5V24.5C33.5714 24.7761 33.3476 25 33.0714 25H26.0714V32C26.0714 32.2761 25.8476 32.5 25.5714 32.5H24.5714C24.2953 32.5 24.0714 32.2761 24.0714 32V25H17.0714C16.7953 25 16.5714 24.7761 16.5714 24.5V23.5C16.5714 23.2239 16.7953 23 17.0714 23H24.0714V16C24.0714 15.7239 24.2953 15.5 24.5714 15.5H25.5714Z"/>
</mask>
<path d="M26.0714 16H27.0714H26.0714ZM26.0714 23H25.0714V24H26.0714V23ZM33.0714 23V22V22V23ZM33.0714 25V26V25ZM26.0714 25V24H25.0714V25H26.0714ZM26.0714 32H27.0714V32H26.0714ZM24.0714 32H23.0714H24.0714ZM24.0714 25H25.0714V24H24.0714V25ZM17.0714 25L17.0714 26H17.0714V25ZM17.0714 23V22V23ZM24.0714 23V24H25.0714V23H24.0714ZM24.0714 16L23.0714 16V16H24.0714ZM24.5714 15.5V14.5V15.5ZM25.5714 15.5V16.5C25.2953 16.5 25.0714 16.2761 25.0714 16H26.0714H27.0714C27.0714 15.1716 26.3998 14.5 25.5714 14.5V15.5ZM26.0714 16H25.0714V23H26.0714H27.0714V16H26.0714ZM26.0714 23V24H33.0714V23V22H26.0714V23ZM33.0714 23V24C32.7953 24 32.5714 23.7761 32.5714 23.5H33.5714H34.5714C34.5714 22.6716 33.8998 22 33.0714 22V23ZM33.5714 23.5H32.5714V24.5H33.5714H34.5714V23.5H33.5714ZM33.5714 24.5H32.5714C32.5714 24.2239 32.7953 24 33.0714 24V25V26C33.8998 26 34.5714 25.3284 34.5714 24.5H33.5714ZM33.0714 25V24H26.0714V25V26H33.0714V25ZM26.0714 25H25.0714V32H26.0714H27.0714V25H26.0714ZM26.0714 32H25.0714C25.0714 31.7239 25.2953 31.5 25.5714 31.5V32.5V33.5C26.3998 33.5 27.0714 32.8284 27.0714 32H26.0714ZM25.5714 32.5V31.5H24.5714V32.5V33.5H25.5714V32.5ZM24.5714 32.5V31.5C24.8476 31.5 25.0714 31.7239 25.0714 32H24.0714H23.0714C23.0714 32.8284 23.743 33.5 24.5714 33.5V32.5ZM24.0714 32H25.0714V25H24.0714H23.0714V32H24.0714ZM24.0714 25V24H17.0714V25V26H24.0714V25ZM17.0714 25L17.0714 24C17.3476 24 17.5714 24.2239 17.5714 24.5H16.5714H15.5714C15.5714 25.3284 16.243 26 17.0714 26L17.0714 25ZM16.5714 24.5H17.5714V23.5H16.5714H15.5714V24.5H16.5714ZM16.5714 23.5H17.5714C17.5714 23.7761 17.3476 24 17.0714 24V23V22C16.243 22 15.5714 22.6716 15.5714 23.5H16.5714ZM17.0714 23V24H24.0714V23V22H17.0714V23ZM24.0714 23H25.0714V16H24.0714H23.0714V23H24.0714ZM24.0714 16L25.0714 16C25.0714 16.2761 24.8476 16.5 24.5714 16.5V15.5V14.5C23.743 14.5 23.0714 15.1716 23.0714 16L24.0714 16ZM24.5714 15.5V16.5H25.5714V15.5V14.5H24.5714V15.5Z" fill="#E37F2B" mask="url(#path-1-outside-1_138_740)"/>
<path d="M0.5 14V4.5C0.5 2.29086 2.29086 0.5 4.5 0.5H43.6429C45.852 0.5 47.6429 2.29086 47.6429 4.5V14" stroke="#E37F2B"/>
<path d="M0.5 36.5V44.5C0.5 46.7091 2.29086 48.5 4.5 48.5H43.6429C45.852 48.5 47.6429 46.7091 47.6429 44.5V36.5" stroke="#E37F2B"/>
</svg>
