<svg width="60" height="48" viewBox="0 0 60 48" fill="none" xmlns="http://www.w3.org/2000/svg">
<path d="M34.0713 6.5C37.4336 10.0037 39.5 14.7605 39.5 20C39.5 30.7696 30.7696 39.5 20 39.5C19.153 39.5 18.3185 39.446 17.5 39.3412" stroke="#E37F2B" stroke-linecap="round"/>
<path d="M24.5 1.0218C23.0554 0.680566 21.5488 0.5 20 0.5C9.23045 0.5 0.5 9.23045 0.5 20C0.5 25.7752 3.01063 30.9641 7 34.5347" stroke="#E37F2B" stroke-linecap="round"/>
<path d="M49.5 10.9666C46.689 9.39546 43.4491 8.5 40 8.5C29.2304 8.5 20.5 17.2304 20.5 28C20.5 34.469 23.6501 40.2024 28.5 43.7497" stroke="#E37F2B" stroke-linecap="round"/>
<path d="M58.5595 22C59.1701 23.8902 59.5 25.9066 59.5 28C59.5 38.7696 50.7696 47.5 40 47.5C38.8052 47.5 37.6355 47.3926 36.5 47.1868" stroke="#E37F2B" stroke-linecap="round"/>
<path d="M11.0455 27.5V24.9193L11.4012 25.2647C10.4526 25.2512 9.55665 25.1089 8.71344 24.838C7.87022 24.5535 7.13241 24.1267 6.5 23.5578L7.09289 22.2166C7.7253 22.7449 8.39065 23.1378 9.08893 23.3952C9.78722 23.6526 10.6041 23.7813 11.5395 23.7813C12.6726 23.7813 13.5158 23.5578 14.0692 23.1107C14.6225 22.6501 14.8992 22.0608 14.8992 21.3428C14.8992 20.7602 14.695 20.2996 14.2866 19.961C13.8913 19.6087 13.2325 19.331 12.3103 19.1278L10.334 18.7011C9.13505 18.4301 8.24572 17.9898 7.66601 17.3802C7.0863 16.757 6.79644 15.9374 6.79644 14.9214C6.79644 14.1357 6.9809 13.438 7.3498 12.8283C7.73188 12.2052 8.25889 11.7175 8.93083 11.3652C9.60277 10.9995 10.3867 10.7963 11.2826 10.7556L11.0455 11.0401V8.5H12.3893V11.0401L12.1324 10.7556C12.8307 10.7827 13.5422 10.9385 14.2668 11.223C14.9914 11.5075 15.6041 11.9342 16.1047 12.5032L15.5514 13.8037C15.0244 13.2483 14.4381 12.8487 13.7925 12.6048C13.1469 12.3474 12.4289 12.2187 11.6383 12.2187C10.637 12.2187 9.83992 12.4626 9.24704 12.9503C8.65415 13.438 8.35771 14.0815 8.35771 14.8807C8.35771 15.5039 8.54216 16.0052 8.91107 16.3845C9.29315 16.7638 9.9058 17.0415 10.749 17.2176L12.7253 17.6647C14.0033 17.9357 14.9519 18.3624 15.5711 18.9449C16.1904 19.5139 16.5 20.2861 16.5 21.2615C16.5 22.0337 16.309 22.7111 15.9269 23.2936C15.5448 23.8626 15.0244 24.3164 14.3656 24.6551C13.7069 24.9802 12.9427 25.1766 12.0731 25.2444L12.3893 24.8989V27.5H11.0455Z" fill="#E37F2B"/>
<path d="M22.1464 27.8536C21.9512 27.6583 21.9512 27.3417 22.1464 27.1464L25.3284 23.9645C25.5237 23.7692 25.8403 23.7692 26.0355 23.9645C26.2308 24.1597 26.2308 24.4763 26.0355 24.6716L23.2071 27.5L26.0355 30.3284C26.2308 30.5237 26.2308 30.8403 26.0355 31.0355C25.8403 31.2308 25.5237 31.2308 25.3284 31.0355L22.1464 27.8536ZM33.1302 27.5V28H22.5V27.5V27H33.1302V27.5Z" fill="#E37F2B"/>
<path d="M37.4838 22.8536C37.6791 22.6583 37.6791 22.3417 37.4838 22.1464L34.3018 18.9645C34.1066 18.7692 33.79 18.7692 33.5947 18.9645C33.3995 19.1597 33.3995 19.4763 33.5947 19.6716L36.4231 22.5L33.5947 25.3284C33.3995 25.5237 33.3995 25.8403 33.5947 26.0355C33.79 26.2308 34.1066 26.2308 34.3018 26.0355L37.4838 22.8536ZM26.5 22.5V23H37.1303V22.5V22H26.5V22.5Z" fill="#E37F2B"/>
<path d="M47.333 40.876C46.137 40.876 45.0253 40.6767 43.998 40.278C42.9707 39.864 42.0737 39.289 41.307 38.553C40.5557 37.817 39.9653 36.9507 39.536 35.954C39.122 34.9573 38.915 33.8687 38.915 32.688C38.915 31.5073 39.122 30.4187 39.536 29.422C39.9653 28.4253 40.5557 27.559 41.307 26.823C42.0737 26.087 42.9707 25.5197 43.998 25.121C45.0253 24.707 46.137 24.5 47.333 24.5C48.529 24.5 49.633 24.6993 50.645 25.098C51.6723 25.4813 52.5463 26.064 53.267 26.846L52.163 27.927C51.519 27.2523 50.7907 26.7693 49.978 26.478C49.1807 26.1713 48.3297 26.018 47.425 26.018C46.4437 26.018 45.539 26.1867 44.711 26.524C43.883 26.846 43.1623 27.3137 42.549 27.927C41.9357 28.525 41.4603 29.2303 41.123 30.043C40.7857 30.8403 40.617 31.722 40.617 32.688C40.617 33.654 40.7857 34.5433 41.123 35.356C41.4603 36.1533 41.9357 36.8587 42.549 37.472C43.1623 38.07 43.883 38.5377 44.711 38.875C45.539 39.197 46.4437 39.358 47.425 39.358C48.3297 39.358 49.1807 39.2047 49.978 38.898C50.7907 38.5913 51.519 38.1007 52.163 37.426L53.267 38.507C52.5463 39.289 51.6723 39.8793 50.645 40.278C49.633 40.6767 48.529 40.876 47.333 40.876ZM36.5 34.781V33.769H48.828V34.781H36.5ZM36.5 31.607V30.595H48.828V31.607H36.5Z" fill="#E37F2B"/>
</svg>
