<svg width="59" height="59" viewBox="0 0 59 59" fill="none" xmlns="http://www.w3.org/2000/svg">
<path d="M30.059 54.0133C30.3597 54.2982 30.3725 54.7729 30.0875 55.0736C29.8026 55.3743 29.3279 55.387 29.0273 55.1021L29.5431 54.5577L30.059 54.0133ZM5.39698 32.4069C5.38585 31.9929 5.71248 31.6482 6.12655 31.6371L12.8741 31.4556C13.2882 31.4444 13.6329 31.7711 13.644 32.1851C13.6551 32.5992 13.3285 32.9439 12.9144 32.955L6.9166 33.1163L7.07791 39.1142C7.08905 39.5282 6.76241 39.8729 6.34835 39.8841C5.93428 39.8952 5.58959 39.5686 5.57846 39.1545L5.39698 32.4069ZM29.5431 54.5577L29.0273 55.1021L5.63083 32.9312L6.14671 32.3868L6.66259 31.8424L30.059 54.0133L29.5431 54.5577Z" fill="#E37F2B"/>
<path d="M28.3656 4.7366C28.0649 4.45168 28.0522 3.97698 28.3371 3.67632C28.622 3.37566 29.0967 3.36289 29.3973 3.6478L28.8815 4.1922L28.3656 4.7366ZM53.0276 26.343C53.0388 26.757 52.7121 27.1017 52.2981 27.1129L45.5505 27.2943C45.1364 27.3055 44.7917 26.9788 44.7806 26.5648C44.7695 26.1507 45.0961 25.806 45.5102 25.7949L51.508 25.6336L51.3467 19.6357C51.3356 19.2217 51.6622 18.877 52.0763 18.8658C52.4903 18.8547 52.835 19.1813 52.8462 19.5954L53.0276 26.343ZM28.8815 4.1922L29.3973 3.6478L52.7938 25.8187L52.2779 26.3631L51.762 26.9075L28.3656 4.7366L28.8815 4.1922Z" fill="#E37F2B"/>
<path d="M3.70236 29.2267C3.41745 29.5274 3.43022 30.0021 3.73088 30.287C4.03154 30.5719 4.50624 30.5592 4.79116 30.2585L4.24676 29.7426L3.70236 29.2267ZM27.1674 6.32601C27.1563 5.91195 26.8116 5.58531 26.3975 5.59645L19.65 5.77792C19.2359 5.78906 18.9093 6.13375 18.9204 6.54781C18.9315 6.96188 19.2762 7.28851 19.6903 7.27738L25.6881 7.11607L25.8494 13.1139C25.8606 13.528 26.2053 13.8546 26.6193 13.8435C27.0334 13.8323 27.36 13.4876 27.3489 13.0736L27.1674 6.32601ZM4.24676 29.7426L4.79116 30.2585L26.9621 6.86206L26.4177 6.34618L25.8733 5.8303L3.70236 29.2267L4.24676 29.7426Z" fill="#E37F2B"/>
<path d="M55.0247 30.0402C55.3096 29.7396 55.2968 29.2649 54.9962 28.98C54.6955 28.695 54.2208 28.7078 53.9359 29.0085L54.4803 29.5244L55.0247 30.0402ZM31.5596 52.941C31.5708 53.355 31.9155 53.6817 32.3295 53.6705L39.0771 53.489C39.4911 53.4779 39.8178 53.1332 39.8066 52.7192C39.7955 52.3051 39.4508 51.9785 39.0367 51.9896L33.0389 52.1509L32.8776 46.1531C32.8665 45.739 32.5218 45.4124 32.1077 45.4235C31.6937 45.4346 31.367 45.7793 31.3782 46.1934L31.5596 52.941ZM54.4803 29.5244L53.9359 29.0085L31.765 52.4049L32.3094 52.9208L32.8537 53.4367L55.0247 30.0402L54.4803 29.5244Z" fill="#E37F2B"/>
</svg>
