<svg width="50" height="52" viewBox="0 0 50 52" fill="none" xmlns="http://www.w3.org/2000/svg">
<path d="M0.219677 33.1985C-0.0732155 32.9056 -0.0732155 32.4307 0.219677 32.1378L4.99265 27.3648C5.28554 27.0719 5.76041 27.0719 6.05331 27.3648C6.3462 27.6577 6.3462 28.1326 6.05331 28.4255L1.81067 32.6681L6.05331 36.9108C6.3462 37.2037 6.3462 37.6785 6.05331 37.9714C5.76041 38.2643 5.28554 38.2643 4.99265 37.9714L0.219677 33.1985ZM49.0693 32.6681V33.4181H0.750008V32.6681V31.9181H49.0693V32.6681Z" fill="#E37F2B"/>
<path d="M48.919 22.0304C49.2119 21.7375 49.2119 21.2626 48.919 20.9697L44.146 16.1967C43.8531 15.9038 43.3783 15.9038 43.0854 16.1967C42.7925 16.4896 42.7925 16.9645 43.0854 17.2574L47.328 21.5L43.0854 25.7427C42.7925 26.0356 42.7925 26.5104 43.0854 26.8033C43.3783 27.0962 43.8531 27.0962 44.146 26.8033L48.919 22.0304ZM0.0693359 21.5V22.25H48.3887V21.5V20.75H0.0693359V21.5Z" fill="#E37F2B"/>
<path d="M1.06934 14V4.5C1.06934 2.29086 2.8602 0.5 5.06934 0.5H44.2122C46.4213 0.5 48.2122 2.29086 48.2122 4.5V14" stroke="#E37F2B"/>
<path d="M1.06934 39.5V47.5C1.06934 49.7091 2.8602 51.5 5.06934 51.5H44.2122C46.4213 51.5 48.2122 49.7091 48.2122 47.5V39.5" stroke="#E37F2B"/>
</svg>
