<svg width="49" height="49" viewBox="0 0 49 49" fill="none" xmlns="http://www.w3.org/2000/svg">
<rect x="22" y="9" width="4" height="33" rx="1" stroke="#E37F2B"/>
<rect x="30" y="16" width="4" height="19" rx="1" stroke="#E37F2B"/>
<rect x="14" y="16" width="4" height="19" rx="1" stroke="#E37F2B"/>
<rect x="6" y="23" width="4" height="4" rx="1" stroke="#E37F2B"/>
<rect x="38" y="23" width="4" height="4" rx="1" stroke="#E37F2B"/>
<path d="M0.5 14V4.5C0.5 2.29086 2.29086 0.5 4.5 0.5H43.6429C45.852 0.5 47.6429 2.29086 47.6429 4.5V14" stroke="#E37F2B"/>
<path d="M0.5 36.5V44.5C0.5 46.7091 2.29086 48.5 4.5 48.5H43.6429C45.852 48.5 47.6429 46.7091 47.6429 44.5V36.5" stroke="#E37F2B"/>
</svg>
